<svg width="221" height="44" viewBox="0 0 221 44" fill="none" xmlns="http://www.w3.org/2000/svg">
<path d="M8.70004 22.59C15.03 22.59 19.44 18.03 19.44 11.55C19.44 4.95 14.91 0.39 8.40004 0.39H0V22.59H8.70004ZM7.92004 4.89C11.94 4.89 14.31 7.35 14.31 11.55C14.31 15.66 12.06 18.09 8.22004 18.09H4.86V4.89H7.92004ZM29.2122 22.98C33.3222 22.98 36.2922 20.85 36.8322 17.52H32.6022C32.2722 18.6 31.0422 19.23 29.3022 19.23C27.2622 19.23 26.1522 18.3 25.8822 16.32L36.7722 16.26V15.09C36.7722 10.2 33.8322 7.11 29.1222 7.11C24.5922 7.11 21.4422 10.38 21.4422 15.06C21.4422 19.68 24.6822 22.98 29.2122 22.98ZM29.1522 10.86C31.0122 10.86 32.1822 11.88 32.1822 13.47H25.9422C26.3022 11.67 27.3222 10.86 29.1522 10.86ZM38.4281 17.85C38.4281 20.88 40.9181 22.98 44.8781 22.98C48.7781 22.98 51.5081 21.03 51.5081 17.82C51.5081 15.42 50.1581 14.28 47.6981 13.74L44.9081 13.14C43.8581 12.9 43.2881 12.51 43.2881 11.82C43.2881 11.01 43.9481 10.47 44.9981 10.47C46.1081 10.47 46.7381 11.16 46.7381 12.18H51.1181C51.1181 9.15 48.6881 7.11 45.2081 7.11C41.6081 7.11 38.9381 8.91 38.9381 12.03C38.9381 14.67 40.2881 15.87 43.0481 16.47L45.8081 17.07C46.9181 17.31 47.1581 17.79 47.1581 18.24C47.1581 19.02 46.4981 19.53 45.0581 19.53C43.6481 19.53 42.8681 18.9 42.8081 17.85H38.4281ZM56.2022 5.25C57.6422 5.25 58.8122 4.08 58.8122 2.61C58.8122 1.14 57.6422 0 56.2022 0C54.7322 0 53.5622 1.14 53.5622 2.61C53.5622 4.08 54.7322 5.25 56.2022 5.25ZM53.9222 22.59H58.5422V7.59H53.9222V22.59ZM61.2581 14.82C61.2581 19.32 64.1681 22.41 68.3681 22.41C70.3181 22.41 71.9981 21.72 72.8981 20.64V22.59C72.8981 24.72 71.4881 26.04 69.2681 26.04C67.2281 26.04 65.9681 25.05 65.8781 23.37H61.1981C61.6181 27.63 64.7081 30.24 69.2981 30.24C74.4281 30.24 77.5181 27 77.5181 21.63V7.59H73.1681L72.9281 9.09C72.1181 7.86 70.4981 7.08 68.4581 7.08C64.2281 7.08 61.2581 10.26 61.2581 14.82ZM65.9081 14.7C65.9081 12.57 67.3181 11.1 69.3581 11.1C71.4881 11.1 72.8981 12.51 72.8981 14.7C72.8981 16.92 71.4881 18.39 69.3881 18.39C67.3481 18.39 65.9081 16.86 65.9081 14.7ZM85.6125 22.59V14.37C85.6125 12.51 86.7825 11.31 88.6125 11.31C90.2025 11.31 91.2525 12.54 91.2525 14.43V22.59H95.8725V13.32C95.8725 9.39 93.8025 7.11 90.2325 7.11C88.2825 7.11 86.5725 7.86 85.6425 9.15L85.3425 7.59H80.9925V22.59H85.6125ZM102.066 22.98C103.536 22.98 104.826 21.75 104.826 20.28C104.826 18.78 103.536 17.55 102.066 17.55C100.536 17.55 99.3063 18.78 99.3063 20.28C99.3063 21.75 100.536 22.98 102.066 22.98ZM113.844 22.59V14.82H117.594L120.924 22.59H126.234L122.334 13.77C124.794 12.51 126.024 10.47 126.024 7.59C126.024 3 122.964 0.39 117.564 0.39H108.984V22.59H113.844ZM113.844 4.71H117.564C119.724 4.71 120.894 5.73 120.894 7.59C120.894 9.48 119.664 10.56 117.534 10.56H113.844V4.71Z" fill="#1C1C1C"/>
<path d="M6.496 34.158C6.48 34.878 6.272 35.326 5.632 35.326C4.608 35.326 3.68 34.078 2.224 34.078C0.863999 34.078 0 35.246 0 36.766H1.504C1.52 36.11 1.728 35.662 2.368 35.662C3.328 35.662 4.256 36.91 5.776 36.91C7.136 36.91 8 35.742 8 34.158H6.496ZM15.415 40.43V33.178L20.231 40.43H21.995V30.196H20.231V37.448L15.429 30.196H13.651V40.43H15.415ZM27.102 40.612C28.908 40.612 30.168 39.702 30.462 38.19H28.88C28.684 38.848 28.068 39.212 27.13 39.212C25.996 39.212 25.352 38.596 25.226 37.378L30.434 37.364V36.846C30.434 34.69 29.118 33.304 27.046 33.304C25.016 33.304 23.602 34.802 23.602 36.972C23.602 39.114 25.044 40.612 27.102 40.612ZM27.06 34.704C28.082 34.704 28.74 35.334 28.74 36.286H25.268C25.436 35.25 26.052 34.704 27.06 34.704ZM39.915 33.486C39.635 33.416 39.397 33.388 39.159 33.388C38.235 33.388 37.577 33.85 37.283 34.536L37.185 33.528H35.575V40.43H37.283V37.07C37.283 35.726 38.053 35.068 39.285 35.068H39.915V33.486ZM43.106 32.688L43.918 31.302L44.716 32.688H46.046L44.786 30.504H43.036L41.776 32.688H43.106ZM43.932 40.612C45.738 40.612 46.998 39.702 47.292 38.19H45.71C45.514 38.848 44.898 39.212 43.96 39.212C42.826 39.212 42.182 38.596 42.056 37.378L47.264 37.364V36.846C47.264 34.69 45.948 33.304 43.876 33.304C41.846 33.304 40.432 34.802 40.432 36.972C40.432 39.114 41.874 40.612 43.932 40.612ZM43.89 34.704C44.912 34.704 45.57 35.334 45.57 36.286H42.098C42.266 35.25 42.882 34.704 43.89 34.704ZM50.291 40.43H51.971L54.855 33.514H53.091L51.831 36.692C51.537 37.448 51.285 38.176 51.187 38.61C51.103 38.232 50.865 37.518 50.571 36.692L49.367 33.514H47.547L50.291 40.43ZM58.589 40.612C60.395 40.612 61.655 39.702 61.949 38.19H60.367C60.171 38.848 59.555 39.212 58.617 39.212C57.483 39.212 56.839 38.596 56.713 37.378L61.921 37.364V36.846C61.921 34.69 60.605 33.304 58.533 33.304C56.503 33.304 55.089 34.802 55.089 36.972C55.089 39.114 56.531 40.612 58.589 40.612ZM58.547 34.704C59.569 34.704 60.227 35.334 60.227 36.286H56.755C56.923 35.25 57.539 34.704 58.547 34.704ZM68.373 40.43V39.002H64.873L68.373 34.928V33.514H62.787V34.942H66.231L62.787 39.03V40.43H68.373ZM73.541 43.636H75.249V39.506C75.683 40.206 76.579 40.612 77.615 40.612C79.673 40.612 80.849 39.044 80.849 36.888C80.849 34.718 79.561 33.304 77.615 33.304C76.565 33.304 75.655 33.766 75.235 34.564L75.123 33.514H73.541V43.636ZM75.263 36.972C75.263 35.726 76.033 34.858 77.209 34.858C78.413 34.858 79.127 35.74 79.127 36.972C79.127 38.204 78.413 39.072 77.209 39.072C76.033 39.072 75.263 38.218 75.263 36.972ZM83.931 40.43V30.014H82.237V40.43H83.931ZM90.413 33.514V37.14C90.413 38.456 89.895 39.086 88.817 39.086C87.865 39.086 87.347 38.554 87.347 37.238V33.514H85.639V37.84C85.639 39.534 86.577 40.612 88.173 40.612C89.097 40.612 89.993 40.164 90.413 39.506L90.539 40.43H92.121V33.514H90.413ZM93.216 38.33C93.216 39.688 94.308 40.612 96.03 40.612C97.738 40.612 98.928 39.744 98.928 38.344C98.928 37.28 98.34 36.748 97.178 36.482L95.932 36.188C95.344 36.048 95.036 35.796 95.036 35.404C95.036 34.886 95.428 34.578 96.1 34.578C96.758 34.578 97.15 34.956 97.164 35.544H98.788C98.774 34.2 97.724 33.304 96.17 33.304C94.574 33.304 93.426 34.116 93.426 35.474C93.426 36.58 94.028 37.168 95.274 37.448L96.52 37.742C97.136 37.882 97.318 38.134 97.318 38.484C97.318 38.988 96.884 39.31 96.086 39.31C95.302 39.31 94.854 38.932 94.84 38.33H93.216ZM102.47 39.814C102.47 38.946 101.966 38.372 101.266 38.372C100.636 38.372 100.202 38.82 100.202 39.492C100.202 40.052 100.65 40.458 101.196 40.458C101.364 40.458 101.49 40.43 101.602 40.374C101.602 40.864 101.126 41.242 100.496 41.354V42.04C101.63 41.9 102.47 40.976 102.47 39.814ZM107.63 36.958C107.63 39.156 109.002 40.612 111.102 40.612C112.908 40.612 114.252 39.506 114.462 37.896H112.74C112.558 38.652 111.956 39.072 111.102 39.072C110.01 39.072 109.338 38.26 109.338 36.958C109.338 35.656 110.066 34.83 111.158 34.83C111.97 34.83 112.544 35.236 112.74 36.02H114.448C114.266 34.354 112.978 33.304 111.088 33.304C109.044 33.304 107.63 34.816 107.63 36.958ZM117.438 31.372C117.438 30.532 116.962 30 116.304 30C115.688 30 115.268 30.434 115.268 31.05C115.268 31.666 115.674 32.016 116.178 32.016C116.332 32.016 116.458 31.988 116.57 31.946C116.57 32.436 116.136 32.814 115.534 32.926V33.598C116.654 33.458 117.438 32.548 117.438 31.372ZM121.397 40.612C123.203 40.612 124.463 39.702 124.757 38.19H123.175C122.979 38.848 122.363 39.212 121.425 39.212C120.291 39.212 119.647 38.596 119.521 37.378L124.729 37.364V36.846C124.729 34.69 123.413 33.304 121.341 33.304C119.311 33.304 117.897 34.802 117.897 36.972C117.897 39.114 119.339 40.612 121.397 40.612ZM121.355 34.704C122.377 34.704 123.035 35.334 123.035 36.286H119.563C119.731 35.25 120.347 34.704 121.355 34.704ZM125.564 38.33C125.564 39.688 126.656 40.612 128.378 40.612C130.086 40.612 131.276 39.744 131.276 38.344C131.276 37.28 130.688 36.748 129.526 36.482L128.28 36.188C127.692 36.048 127.384 35.796 127.384 35.404C127.384 34.886 127.776 34.578 128.448 34.578C129.106 34.578 129.498 34.956 129.512 35.544H131.136C131.122 34.2 130.072 33.304 128.518 33.304C126.922 33.304 125.774 34.116 125.774 35.474C125.774 36.58 126.376 37.168 127.622 37.448L128.868 37.742C129.484 37.882 129.666 38.134 129.666 38.484C129.666 38.988 129.232 39.31 128.434 39.31C127.65 39.31 127.202 38.932 127.188 38.33H125.564ZM134.929 40.43V34.942H136.273V33.514H134.929V31.358H133.221V33.514H131.891V34.942H133.221V40.43H134.929ZM142.816 40.43V36.51C142.816 35.39 143.474 34.858 144.286 34.858C145.098 34.858 145.616 35.376 145.616 36.342V40.43H147.324V36.51C147.324 35.376 147.954 34.844 148.78 34.844C149.592 34.844 150.124 35.362 150.124 36.356V40.43H151.818V35.908C151.818 34.312 150.894 33.304 149.214 33.304C148.164 33.304 147.352 33.822 147.002 34.62C146.638 33.822 145.91 33.304 144.86 33.304C143.866 33.304 143.166 33.752 142.816 34.326L142.676 33.514H141.108V40.43H142.816ZM155.553 40.612C156.631 40.612 157.569 40.122 157.863 39.408L157.989 40.43H159.487V36.23C159.487 34.312 158.339 33.304 156.477 33.304C154.601 33.304 153.369 34.284 153.369 35.782H154.825C154.825 35.054 155.385 34.634 156.393 34.634C157.261 34.634 157.821 35.012 157.821 35.95V36.104L155.749 36.258C154.111 36.384 153.187 37.182 153.187 38.456C153.187 39.758 154.083 40.612 155.553 40.612ZM156.113 39.324C155.343 39.324 154.923 39.016 154.923 38.386C154.923 37.826 155.329 37.476 156.393 37.378L157.835 37.266V37.63C157.835 38.694 157.163 39.324 156.113 39.324ZM162.019 32.128C162.579 32.128 163.041 31.666 163.041 31.092C163.041 30.518 162.579 30.07 162.019 30.07C161.431 30.07 160.969 30.518 160.969 31.092C160.969 31.666 161.431 32.128 162.019 32.128ZM161.165 40.43H162.873V33.514H161.165V40.43ZM166.345 40.43V36.706C166.345 35.586 166.989 34.858 168.039 34.858C168.921 34.858 169.495 35.418 169.495 36.58V40.43H171.203V36.174C171.203 34.382 170.307 33.304 168.571 33.304C167.633 33.304 166.793 33.71 166.359 34.41L166.219 33.514H164.637V40.43H166.345ZM175.233 40.43V34.942H176.577V33.514H175.233V31.358H173.525V33.514H172.195V34.942H173.525V40.43H175.233ZM180.665 40.612C182.471 40.612 183.731 39.702 184.025 38.19H182.443C182.247 38.848 181.631 39.212 180.693 39.212C179.559 39.212 178.915 38.596 178.789 37.378L183.997 37.364V36.846C183.997 34.69 182.681 33.304 180.609 33.304C178.579 33.304 177.165 34.802 177.165 36.972C177.165 39.114 178.607 40.612 180.665 40.612ZM180.623 34.704C181.645 34.704 182.303 35.334 182.303 36.286H178.831C178.999 35.25 179.615 34.704 180.623 34.704ZM187.072 40.43V36.706C187.072 35.586 187.716 34.858 188.766 34.858C189.648 34.858 190.222 35.418 190.222 36.58V40.43H191.93V36.174C191.93 34.382 191.034 33.304 189.298 33.304C188.36 33.304 187.52 33.71 187.086 34.41L186.946 33.514H185.364V40.43H187.072ZM195.666 40.612C196.744 40.612 197.682 40.122 197.976 39.408L198.102 40.43H199.6V36.23C199.6 34.312 198.452 33.304 196.59 33.304C194.714 33.304 193.482 34.284 193.482 35.782H194.938C194.938 35.054 195.498 34.634 196.506 34.634C197.374 34.634 197.934 35.012 197.934 35.95V36.104L195.862 36.258C194.224 36.384 193.3 37.182 193.3 38.456C193.3 39.758 194.196 40.612 195.666 40.612ZM196.226 39.324C195.456 39.324 195.036 39.016 195.036 38.386C195.036 37.826 195.442 37.476 196.506 37.378L197.948 37.266V37.63C197.948 38.694 197.276 39.324 196.226 39.324ZM202.986 40.43V36.706C202.986 35.586 203.63 34.858 204.68 34.858C205.562 34.858 206.136 35.418 206.136 36.58V40.43H207.844V36.174C207.844 34.382 206.948 33.304 205.212 33.304C204.274 33.304 203.434 33.71 203 34.41L202.86 33.514H201.278V40.43H202.986ZM211.874 40.43V34.942H213.218V33.514H211.874V31.358H210.166V33.514H208.836V34.942H210.166V40.43H211.874ZM220.083 37.364C220.279 36.286 220.419 34.41 220.419 32.548V30.196H218.403V32.548C218.403 34.368 218.529 36.244 218.711 37.364H220.083ZM219.411 40.612C220.013 40.612 220.531 40.108 220.531 39.506C220.531 38.89 220.013 38.386 219.411 38.386C218.781 38.386 218.263 38.89 218.263 39.506C218.263 40.108 218.781 40.612 219.411 40.612Z" fill="#363636"/>
</svg>
