<svg width="360" height="72" viewBox="0 0 360 72" fill="none" xmlns="http://www.w3.org/2000/svg">
<path d="M14.1942 37.2595C24.5216 37.2595 31.7165 29.8199 31.7165 19.2477C31.7165 8.47976 24.3258 1.0401 13.7047 1.0401H0V37.2595H14.1942ZM12.9216 8.38187C19.4802 8.38187 23.3469 12.3954 23.3469 19.2477C23.3469 25.9532 19.676 29.9177 13.411 29.9177H7.92912V8.38187H12.9216ZM47.6599 37.8958C54.3654 37.8958 59.211 34.4207 60.092 28.9878H53.1907C52.6523 30.7498 50.6456 31.7777 47.8068 31.7777C44.4785 31.7777 42.6675 30.2604 42.227 27.03L59.9941 26.9321V25.0232C59.9941 17.0452 55.1975 12.0038 47.5131 12.0038C40.1224 12.0038 34.9831 17.3388 34.9831 24.9743C34.9831 32.5118 40.2692 37.8958 47.6599 37.8958ZM47.562 18.122C50.5966 18.122 52.5055 19.7861 52.5055 22.3802H42.3249C42.9122 19.4435 44.5764 18.122 47.562 18.122ZM62.6957 29.5262C62.6957 34.4696 66.7582 37.8958 73.2189 37.8958C79.5818 37.8958 84.0358 34.7144 84.0358 29.4772C84.0358 25.5616 81.8333 23.7017 77.8198 22.8207L73.2679 21.8418C71.5548 21.4502 70.6248 20.8139 70.6248 19.6882C70.6248 18.3667 71.7016 17.4857 73.4147 17.4857C75.2257 17.4857 76.2535 18.6114 76.2535 20.2755H83.3995C83.3995 15.3321 79.435 12.0038 73.7573 12.0038C67.8839 12.0038 63.5278 14.9405 63.5278 20.0308C63.5278 24.338 65.7303 26.2958 70.2333 27.2747L74.7362 28.2536C76.5472 28.6452 76.9388 29.4283 76.9388 30.1625C76.9388 31.435 75.862 32.2671 73.5126 32.2671C71.2122 32.2671 69.9396 31.2393 69.8417 29.5262H62.6957ZM91.6943 8.96921C94.0436 8.96921 95.9525 7.06035 95.9525 4.66204C95.9525 2.26373 94.0436 0.403809 91.6943 0.403809C89.2959 0.403809 87.3871 2.26373 87.3871 4.66204C87.3871 7.06035 89.2959 8.96921 91.6943 8.96921ZM87.9744 37.2595H95.512V12.7869H87.9744V37.2595ZM99.943 24.5827C99.943 31.9245 104.691 36.9658 111.543 36.9658C114.724 36.9658 117.465 35.8401 118.934 34.0781V37.2595C118.934 40.7346 116.633 42.8882 113.011 42.8882C109.683 42.8882 107.627 41.273 107.481 38.5321H99.8451C100.53 45.4823 105.572 49.7405 113.06 49.7405C121.43 49.7405 126.471 44.4545 126.471 35.6933V12.7869H119.374L118.983 15.2342C117.661 13.2274 115.018 11.9549 111.69 11.9549C104.789 11.9549 99.943 17.1431 99.943 24.5827ZM107.529 24.3869C107.529 20.9118 109.83 18.5135 113.158 18.5135C116.633 18.5135 118.934 20.8139 118.934 24.3869C118.934 28.0089 116.633 30.4072 113.207 30.4072C109.879 30.4072 107.529 27.911 107.529 24.3869ZM139.677 37.2595V23.8485C139.677 20.8139 141.586 18.8561 144.572 18.8561C147.166 18.8561 148.879 20.8629 148.879 23.9464V37.2595H156.417V22.1355C156.417 15.7236 153.039 12.0038 147.215 12.0038C144.033 12.0038 141.244 13.2274 139.726 15.3321L139.237 12.7869H132.14V37.2595H139.677ZM166.522 37.8958C168.92 37.8958 171.025 35.8891 171.025 33.4907C171.025 31.0435 168.92 29.0367 166.522 29.0367C164.026 29.0367 162.019 31.0435 162.019 33.4907C162.019 35.8891 164.026 37.8958 166.522 37.8958ZM185.738 37.2595V24.5827H191.856L197.289 37.2595H205.952L199.589 22.8696C203.603 20.8139 205.609 17.4857 205.609 12.7869C205.609 5.29833 200.617 1.0401 191.807 1.0401H177.809V37.2595H185.738ZM185.738 8.0882H191.807C195.331 8.0882 197.24 9.75234 197.24 12.7869C197.24 15.8705 195.233 17.6325 191.758 17.6325H185.738V8.0882Z" fill="#F7F7F7"/>
<path d="M10.5983 56.1328C10.5722 57.3075 10.2328 58.0384 9.18865 58.0384C7.51798 58.0384 6.00394 56.0023 3.62847 56.0023C1.40962 56.0023 0 57.9079 0 60.3878H2.45378C2.47988 59.3175 2.81924 58.5866 3.8634 58.5866C5.42964 58.5866 6.94369 60.6227 9.42358 60.6227C11.6424 60.6227 13.052 58.7171 13.052 56.1328H10.5983ZM25.1497 66.3656V54.5339L33.007 66.3656H35.885V49.6688H33.007V61.5005L25.1725 49.6688H22.2717V66.3656H25.1497ZM44.2171 66.6625C47.1636 66.6625 49.2193 65.1779 49.6989 62.711H47.1179C46.7981 63.7846 45.7931 64.3784 44.2628 64.3784C42.4126 64.3784 41.3619 63.3734 41.1564 61.3862L49.6532 61.3634V60.5183C49.6532 57.0008 47.5062 54.7395 44.1257 54.7395C40.8137 54.7395 38.5068 57.1835 38.5068 60.7239C38.5068 64.2185 40.8594 66.6625 44.2171 66.6625ZM44.1485 57.0236C45.8159 57.0236 46.8895 58.0515 46.8895 59.6046H41.2249C41.499 57.9144 42.504 57.0236 44.1485 57.0236ZM65.1216 55.0364C64.6647 54.9222 64.2764 54.8765 63.8881 54.8765C62.3806 54.8765 61.3071 55.6303 60.8274 56.7495L60.6675 55.105H58.0408V66.3656H60.8274V60.8837C60.8274 58.691 62.0837 57.6175 64.0937 57.6175H65.1216V55.0364ZM70.3277 53.7345L71.6525 51.4732L72.9544 53.7345H75.1243L73.0686 50.1713H70.2135L68.1578 53.7345H70.3277ZM71.6753 66.6625C74.6218 66.6625 76.6775 65.1779 77.1572 62.711H74.5761C74.2564 63.7846 73.2513 64.3784 71.721 64.3784C69.8709 64.3784 68.8202 63.3734 68.6146 61.3862L77.1115 61.3634V60.5183C77.1115 57.0008 74.9644 54.7395 71.5839 54.7395C68.272 54.7395 65.965 57.1835 65.965 60.7239C65.965 64.2185 68.3177 66.6625 71.6753 66.6625ZM71.6068 57.0236C73.2742 57.0236 74.3477 58.0515 74.3477 59.6046H68.6831C68.9572 57.9144 69.9622 57.0236 71.6068 57.0236ZM82.05 66.3656H84.791L89.4962 55.0821H86.6183L84.5626 60.267C84.0829 61.5005 83.6718 62.6882 83.5119 63.3963C83.3748 62.7796 82.9865 61.6147 82.5069 60.267L80.5425 55.0821H77.5732L82.05 66.3656ZM95.5883 66.6625C98.5348 66.6625 100.59 65.1779 101.07 62.711H98.4891C98.1693 63.7846 97.1643 64.3784 95.634 64.3784C93.7838 64.3784 92.7331 63.3734 92.5276 61.3862L101.024 61.3634V60.5183C101.024 57.0008 98.8774 54.7395 95.4969 54.7395C92.185 54.7395 89.878 57.1835 89.878 60.7239C89.878 64.2185 92.2306 66.6625 95.5883 66.6625ZM95.5197 57.0236C97.1871 57.0236 98.2607 58.0515 98.2607 59.6046H92.5961C92.8702 57.9144 93.8752 57.0236 95.5197 57.0236ZM111.551 66.3656V64.0358H105.841L111.551 57.3891V55.0821H102.437V57.4119H108.056L102.437 64.0815V66.3656H111.551ZM119.983 71.5962H122.769V64.8581C123.477 66.0001 124.939 66.6625 126.629 66.6625C129.987 66.6625 131.906 64.1043 131.906 60.5868C131.906 57.0464 129.804 54.7395 126.629 54.7395C124.916 54.7395 123.432 55.4933 122.746 56.7952L122.564 55.0821H119.983V71.5962ZM122.792 60.7239C122.792 58.691 124.048 57.2749 125.967 57.2749C127.931 57.2749 129.096 58.7138 129.096 60.7239C129.096 62.7339 127.931 64.15 125.967 64.15C124.048 64.15 122.792 62.7567 122.792 60.7239ZM136.934 66.3656V49.3718H134.17V66.3656H136.934ZM147.509 55.0821V60.9979C147.509 63.145 146.664 64.1729 144.905 64.1729C143.352 64.1729 142.507 63.3049 142.507 61.1578V55.0821H139.721V62.14C139.721 64.9038 141.251 66.6625 143.855 66.6625C145.362 66.6625 146.824 65.9316 147.509 64.8581L147.715 66.3656H150.296V55.0821H147.509ZM152.082 62.9394C152.082 65.155 153.864 66.6625 156.673 66.6625C159.46 66.6625 161.402 65.2464 161.402 62.9623C161.402 61.2264 160.442 60.3584 158.546 59.9244L156.514 59.4448C155.554 59.2163 155.052 58.8052 155.052 58.1657C155.052 57.3205 155.691 56.818 156.788 56.818C157.861 56.818 158.501 57.4347 158.524 58.3941H161.173C161.15 56.2013 159.437 54.7395 156.902 54.7395C154.298 54.7395 152.425 56.0643 152.425 58.2799C152.425 60.0843 153.407 61.0436 155.44 61.5005L157.473 61.9801C158.478 62.2085 158.775 62.6197 158.775 63.1907C158.775 64.013 158.067 64.5383 156.765 64.5383C155.486 64.5383 154.755 63.9216 154.732 62.9394H152.082ZM167.18 65.3606C167.18 63.9444 166.358 63.008 165.216 63.008C164.188 63.008 163.48 63.7389 163.48 64.8353C163.48 65.7489 164.211 66.4113 165.102 66.4113C165.376 66.4113 165.582 66.3656 165.764 66.2742C165.764 67.0737 164.988 67.6904 163.96 67.8731V68.9923C165.81 68.7639 167.18 67.2564 167.18 65.3606ZM175.599 60.701C175.599 64.2871 177.837 66.6625 181.264 66.6625C184.21 66.6625 186.403 64.8581 186.745 62.2314H183.936C183.639 63.4648 182.657 64.15 181.264 64.15C179.482 64.15 178.386 62.8252 178.386 60.701C178.386 58.5768 179.573 57.2292 181.355 57.2292C182.68 57.2292 183.616 57.8916 183.936 59.1707H186.723C186.426 56.4526 184.324 54.7395 181.241 54.7395C177.906 54.7395 175.599 57.2063 175.599 60.701ZM191.601 51.5874C191.601 50.217 190.824 49.349 189.751 49.349C188.746 49.349 188.06 50.0571 188.06 51.0621C188.06 52.0671 188.723 52.6381 189.545 52.6381C189.796 52.6381 190.002 52.5924 190.185 52.5239C190.185 53.3233 189.477 53.9401 188.494 54.1228V55.2192C190.322 54.9907 191.601 53.5061 191.601 51.5874ZM198.06 66.6625C201.006 66.6625 203.062 65.1779 203.542 62.711H200.961C200.641 63.7846 199.636 64.3784 198.106 64.3784C196.255 64.3784 195.205 63.3734 194.999 61.3862L203.496 61.3634V60.5183C203.496 57.0008 201.349 54.7395 197.969 54.7395C194.657 54.7395 192.35 57.1835 192.35 60.7239C192.35 64.2185 194.702 66.6625 198.06 66.6625ZM197.991 57.0236C199.659 57.0236 200.732 58.0515 200.732 59.6046H195.068C195.342 57.9144 196.347 57.0236 197.991 57.0236ZM204.858 62.9394C204.858 65.155 206.64 66.6625 209.449 66.6625C212.236 66.6625 214.178 65.2464 214.178 62.9623C214.178 61.2264 213.218 60.3584 211.322 59.9244L209.29 59.4448C208.33 59.2163 207.828 58.8052 207.828 58.1657C207.828 57.3205 208.467 56.818 209.564 56.818C210.637 56.818 211.277 57.4347 211.3 58.3941H213.949C213.926 56.2013 212.213 54.7395 209.678 54.7395C207.074 54.7395 205.201 56.0643 205.201 58.2799C205.201 60.0843 206.183 61.0436 208.216 61.5005L210.249 61.9801C211.254 62.2085 211.551 62.6197 211.551 63.1907C211.551 64.013 210.843 64.5383 209.541 64.5383C208.262 64.5383 207.531 63.9216 207.508 62.9394H204.858ZM220.137 66.3656V57.4119H222.33V55.0821H220.137V51.5646H217.351V55.0821H215.181V57.4119H217.351V66.3656H220.137ZM233.005 66.3656V59.9701C233.005 58.1428 234.079 57.2749 235.403 57.2749C236.728 57.2749 237.573 58.12 237.573 59.696V66.3656H240.36V59.9701C240.36 58.12 241.388 57.252 242.735 57.252C244.06 57.252 244.928 58.0971 244.928 59.7188V66.3656H247.692V58.9879C247.692 56.3841 246.184 54.7395 243.443 54.7395C241.73 54.7395 240.406 55.5846 239.835 56.8866C239.241 55.5846 238.053 54.7395 236.34 54.7395C234.718 54.7395 233.576 55.4704 233.005 56.4069L232.777 55.0821H230.218V66.3656H233.005ZM253.786 66.6625C255.544 66.6625 257.075 65.8631 257.554 64.6982L257.76 66.3656H260.204V59.5133C260.204 56.384 258.331 54.7395 255.293 54.7395C252.232 54.7395 250.222 56.3384 250.222 58.7824H252.598C252.598 57.5946 253.511 56.9094 255.156 56.9094C256.572 56.9094 257.486 57.5261 257.486 59.0565V59.3077L254.105 59.559C251.433 59.7645 249.925 61.0665 249.925 63.145C249.925 65.2692 251.387 66.6625 253.786 66.6625ZM254.699 64.5612C253.443 64.5612 252.758 64.0587 252.758 63.0308C252.758 62.1172 253.42 61.5461 255.156 61.3862L257.509 61.2035V61.7974C257.509 63.5333 256.412 64.5612 254.699 64.5612ZM264.335 52.8208C265.249 52.8208 266.002 52.0671 266.002 51.1306C266.002 50.1941 265.249 49.4632 264.335 49.4632C263.376 49.4632 262.622 50.1941 262.622 51.1306C262.622 52.0671 263.376 52.8208 264.335 52.8208ZM262.942 66.3656H265.728V55.0821H262.942V66.3656ZM271.393 66.3656V60.2899C271.393 58.4626 272.443 57.2749 274.157 57.2749C275.596 57.2749 276.532 58.1885 276.532 60.0843V66.3656H279.319V59.4219C279.319 56.4983 277.857 54.7395 275.025 54.7395C273.494 54.7395 272.124 55.4019 271.416 56.5439L271.187 55.0821H268.606V66.3656H271.393ZM285.894 66.3656V57.4119H288.086V55.0821H285.894V51.5646H283.107V55.0821H280.937V57.4119H283.107V66.3656H285.894ZM294.756 66.6625C297.702 66.6625 299.758 65.1779 300.238 62.711H297.657C297.337 63.7846 296.332 64.3784 294.802 64.3784C292.951 64.3784 291.901 63.3734 291.695 61.3862L300.192 61.3634V60.5183C300.192 57.0008 298.045 54.7395 294.665 54.7395C291.353 54.7395 289.046 57.1835 289.046 60.7239C289.046 64.2185 291.398 66.6625 294.756 66.6625ZM294.687 57.0236C296.355 57.0236 297.428 58.0515 297.428 59.6046H291.764C292.038 57.9144 293.043 57.0236 294.687 57.0236ZM305.209 66.3656V60.2899C305.209 58.4626 306.26 57.2749 307.973 57.2749C309.412 57.2749 310.348 58.1885 310.348 60.0843V66.3656H313.135V59.4219C313.135 56.4983 311.673 54.7395 308.841 54.7395C307.31 54.7395 305.94 55.4019 305.232 56.5439L305.003 55.0821H302.422V66.3656H305.209ZM319.23 66.6625C320.989 66.6625 322.519 65.8631 322.999 64.6982L323.204 66.3656H325.649V59.5133C325.649 56.384 323.776 54.7395 320.738 54.7395C317.677 54.7395 315.667 56.3384 315.667 58.7824H318.042C318.042 57.5946 318.956 56.9094 320.601 56.9094C322.017 56.9094 322.93 57.5261 322.93 59.0565V59.3077L319.55 59.559C316.878 59.7645 315.37 61.0665 315.37 63.145C315.37 65.2692 316.832 66.6625 319.23 66.6625ZM320.144 64.5612C318.888 64.5612 318.202 64.0587 318.202 63.0308C318.202 62.1172 318.865 61.5461 320.601 61.3862L322.953 61.2035V61.7974C322.953 63.5333 321.857 64.5612 320.144 64.5612ZM331.173 66.3656V60.2899C331.173 58.4626 332.223 57.2749 333.937 57.2749C335.376 57.2749 336.312 58.1885 336.312 60.0843V66.3656H339.099V59.4219C339.099 56.4983 337.637 54.7395 334.805 54.7395C333.274 54.7395 331.904 55.4019 331.196 56.5439L330.967 55.0821H328.386V66.3656H331.173ZM345.674 66.3656V57.4119H347.866V55.0821H345.674V51.5646H342.887V55.0821H340.717V57.4119H342.887V66.3656H345.674ZM359.067 61.3634C359.386 59.6046 359.615 56.5439 359.615 53.5061V49.6688H356.326V53.5061C356.326 56.4754 356.531 59.5361 356.828 61.3634H359.067ZM357.97 66.6625C358.952 66.6625 359.798 65.8403 359.798 64.8581C359.798 63.8531 358.952 63.0308 357.97 63.0308C356.942 63.0308 356.097 63.8531 356.097 64.8581C356.097 65.8403 356.942 66.6625 357.97 66.6625Z" fill="#7A7A7A"/>
</svg>
